<svg width="1500" height="1024" xmlns="http://www.w3.org/2000/svg">
  <defs>
    <radialGradient id="space-glow" cx="50%" cy="30%">
      <stop offset="0%" style="stop-color:#3e8cff;stop-opacity:0.2" />
      <stop offset="50%" style="stop-color:#1a2b4a;stop-opacity:0.6" />
      <stop offset="100%" style="stop-color:#0b1020;stop-opacity:1" />
    </radialGradient>
    <linearGradient id="bottom-fade" x1="0%" y1="0%" x2="0%" y2="100%">
      <stop offset="0%" style="stop-color:#0a1126;stop-opacity:1" />
      <stop offset="60%" style="stop-color:#0b1020;stop-opacity:1" />
      <stop offset="100%" style="stop-color:#0b1020;stop-opacity:1" />
    </linearGradient>
  </defs>
  
  <!-- Base space background -->
  <rect width="1500" height="1024" fill="url(#bottom-fade)" />
  
  <!-- Radial glow overlay -->
  <rect width="1500" height="1024" fill="url(#space-glow)" />
  
  <!-- Scattered stars (small points) -->
  <g opacity="0.8">
    <circle cx="120" cy="80" r="1.5" fill="#e5f0ff" />
    <circle cx="340" cy="120" r="1" fill="#9bb3c8" />
    <circle cx="580" cy="90" r="1.2" fill="#e5f0ff" />
    <circle cx="780" cy="140" r="0.8" fill="#5ed4ff" />
    <circle cx="920" cy="110" r="1.5" fill="#e5f0ff" />
    <circle cx="1120" cy="95" r="1" fill="#60f0af" />
    <circle cx="1280" cy="130" r="1.3" fill="#e5f0ff" />
    <circle cx="1400" cy="100" r="0.9" fill="#9bb3c8" />
    
    <circle cx="180" cy="280" r="1.2" fill="#e5f0ff" />
    <circle cx="420" cy="320" r="1" fill="#5ed4ff" />
    <circle cx="640" cy="290" r="0.8" fill="#9bb3c8" />
    <circle cx="880" cy="340" r="1.4" fill="#e5f0ff" />
    <circle cx="1060" cy="295" r="1.1" fill="#60f0af" />
    <circle cx="1220" cy="330" r="1" fill="#e5f0ff" />
    
    <circle cx="90" cy="480" r="1.3" fill="#e5f0ff" />
    <circle cx="290" cy="520" r="1" fill="#9bb3c8" />
    <circle cx="500" cy="490" r="1.5" fill="#5ed4ff" />
    <circle cx="720" cy="540" r="0.9" fill="#e5f0ff" />
    <circle cx="940" cy="510" r="1.2" fill="#60f0af" />
    <circle cx="1140" cy="495" r="1" fill="#e5f0ff" />
    <circle cx="1340" cy="530" r="1.4" fill="#9bb3c8" />
    
    <circle cx="160" cy="680" r="1.1" fill="#e5f0ff" />
    <circle cx="380" cy="720" r="1.3" fill="#5ed4ff" />
    <circle cx="600" cy="690" r="0.8" fill="#9bb3c8" />
    <circle cx="820" cy="740" r="1.5" fill="#e5f0ff" />
    <circle cx="1020" cy="695" r="1" fill="#60f0af" />
    <circle cx="1260" cy="730" r="1.2" fill="#e5f0ff" />
    
    <circle cx="240" cy="880" r="1" fill="#9bb3c8" />
    <circle cx="460" cy="920" r="1.4" fill="#e5f0ff" />
    <circle cx="680" cy="890" r="1.2" fill="#5ed4ff" />
    <circle cx="900" cy="940" r="0.9" fill="#e5f0ff" />
    <circle cx="1100" cy="895" r="1.3" fill="#60f0af" />
    <circle cx="1320" cy="930" r="1.1" fill="#e5f0ff" />
  </g>
  
  <!-- Subtle nebula clouds -->
  <g opacity="0.15">
    <ellipse cx="300" cy="200" rx="180" ry="120" fill="#5ed4ff" />
    <ellipse cx="1100" cy="600" rx="200" ry="140" fill="#60f0af" />
    <ellipse cx="700" cy="800" rx="160" ry="100" fill="#6aa8ff" />
  </g>
</svg>
