<svg xmlns="http://www.w3.org/2000/svg" width="1200" height="800"><defs><radialGradient id="space-radial" cx="50%" cy="30%"><stop offset="0%" style="stop-color:#2a4d7c;stop-opacity:.4"/><stop offset="40%" style="stop-color:#152238;stop-opacity:.8"/><stop offset="100%" style="stop-color:#0b1020;stop-opacity:1"/></radialGradient><linearGradient id="vertical-fade" x1="0%" x2="0%" y1="0%" y2="100%"><stop offset="0%" style="stop-color:#0a1126;stop-opacity:1"/><stop offset="50%" style="stop-color:#0b1020;stop-opacity:1"/><stop offset="100%" style="stop-color:#0e1830;stop-opacity:1"/></linearGradient><filter id="glow"><feGaussianBlur result="coloredBlur" stdDeviation="4"/><feMerge><feMergeNode in="coloredBlur"/><feMergeNode in="SourceGraphic"/></feMerge></filter><animate id="twinkle1" attributeName="opacity" dur="3s" repeatCount="indefinite" values="0.3;1;0.3"/><animate id="twinkle2" attributeName="opacity" dur="2.5s" repeatCount="indefinite" values="1;0.3;1"/><animate id="twinkle3" attributeName="opacity" dur="3.5s" repeatCount="indefinite" values="0.5;1;0.5"/></defs><rect width="1200" height="800" fill="url(#vertical-fade)"/><rect width="1200" height="800" fill="url(#space-radial)"/><g opacity=".12"><ellipse cx="200" cy="150" fill="#5ed4ff" filter="url(#glow)" rx="250" ry="180"><animate attributeName="opacity" dur="8s" repeatCount="indefinite" values="0.08;0.15;0.08"/></ellipse><ellipse cx="900" cy="500" fill="#60f0af" filter="url(#glow)" rx="280" ry="200"><animate attributeName="opacity" dur="9s" repeatCount="indefinite" values="0.1;0.18;0.1"/></ellipse><ellipse cx="600" cy="650" fill="#6aa8ff" filter="url(#glow)" rx="220" ry="160"><animate attributeName="opacity" dur="7s" repeatCount="indefinite" values="0.09;0.14;0.09"/></ellipse></g><g fill="#e5f0ff"><circle cx="150" cy="100" r="2"><animate attributeName="opacity" dur="3s" repeatCount="indefinite" values="0.4;1;0.4"/></circle><circle cx="380" cy="140" r="1.5"><animate attributeName="opacity" dur="2.5s" repeatCount="indefinite" values="1;0.3;1"/></circle><circle cx="620" cy="110" r="2.2"><animate attributeName="opacity" dur="3.5s" repeatCount="indefinite" values="0.5;1;0.5"/></circle><circle cx="850" cy="170" r="1.8"><animate attributeName="opacity" dur="3s" repeatCount="indefinite" values="0.3;1;0.3"/></circle><circle cx="1050" cy="130" r="2"><animate attributeName="opacity" dur="4s" repeatCount="indefinite" values="1;0.4;1"/></circle><circle cx="100" cy="280" r="1.5"><animate attributeName="opacity" dur="2.8s" repeatCount="indefinite" values="0.6;1;0.6"/></circle><circle cx="320" cy="320" r="2"><animate attributeName="opacity" dur="3.2s" repeatCount="indefinite" values="1;0.5;1"/></circle><circle cx="560" cy="290" r="1.3"><animate attributeName="opacity" dur="2.5s" repeatCount="indefinite" values="0.4;1;0.4"/></circle><circle cx="790" cy="340" r="2.5"><animate attributeName="opacity" dur="3.8s" repeatCount="indefinite" values="1;0.3;1"/></circle><circle cx="980" cy="310" r="1.8"><animate attributeName="opacity" dur="3s" repeatCount="indefinite" values="0.5;1;0.5"/></circle><circle cx="180" cy="480" r="2"><animate attributeName="opacity" dur="3.5s" repeatCount="indefinite" values="0.3;1;0.3"/></circle><circle cx="420" cy="520" r="1.6"><animate attributeName="opacity" dur="2.7s" repeatCount="indefinite" values="1;0.4;1"/></circle><circle cx="660" cy="490" r="2.3"><animate attributeName="opacity" dur="4s" repeatCount="indefinite" values="0.6;1;0.6"/></circle><circle cx="900" cy="540" r="1.5"><animate attributeName="opacity" dur="3.2s" repeatCount="indefinite" values="1;0.5;1"/></circle><circle cx="1100" cy="510" r="2"><animate attributeName="opacity" dur="2.9s" repeatCount="indefinite" values="0.4;1;0.4"/></circle><circle cx="140" cy="680" r="1.8"><animate attributeName="opacity" dur="3.6s" repeatCount="indefinite" values="1;0.3;1"/></circle><circle cx="360" cy="720" r="2.2"><animate attributeName="opacity" dur="2.8s" repeatCount="indefinite" values="0.5;1;0.5"/></circle><circle cx="580" cy="690" r="1.4"><animate attributeName="opacity" dur="3.3s" repeatCount="indefinite" values="1;0.6;1"/></circle><circle cx="820" cy="740" r="2.5"><animate attributeName="opacity" dur="3s" repeatCount="indefinite" values="0.3;1;0.3"/></circle><circle cx="1020" cy="710" r="1.7"><animate attributeName="opacity" dur="3.7s" repeatCount="indefinite" values="1;0.4;1"/></circle></g><g fill="#9bb3c8" opacity=".6"><circle cx="220" cy="90" r="1"/><circle cx="450" cy="130" r=".8"/><circle cx="680" cy="100" r="1.2"/><circle cx="910" cy="150" r=".9"/><circle cx="1120" cy="120" r="1"/><circle cx="160" cy="270" r=".8"/><circle cx="390" cy="310" r="1.1"/><circle cx="610" cy="280" r=".9"/><circle cx="840" cy="330" r="1.2"/><circle cx="1060" cy="300" r=".8"/><circle cx="120" cy="470" r="1"/><circle cx="340" cy="510" r=".9"/><circle cx="570" cy="480" r="1.1"/><circle cx="800" cy="530" r=".8"/><circle cx="1010" cy="500" r="1.2"/><circle cx="200" cy="670" r=".9"/><circle cx="430" cy="710" r="1"/><circle cx="650" cy="680" r=".8"/><circle cx="880" cy="730" r="1.1"/><circle cx="1080" cy="700" r=".9"/></g><g filter="url(#glow)"><circle cx="300" cy="200" r="1.5" fill="#5ed4ff" opacity=".8"><animate attributeName="opacity" dur="4s" repeatCount="indefinite" values="0.5;0.9;0.5"/></circle><circle cx="700" cy="400" r="1.8" fill="#60f0af" opacity=".7"><animate attributeName="opacity" dur="3.5s" repeatCount="indefinite" values="0.4;0.8;0.4"/></circle><circle cx="950" cy="250" r="1.6" fill="#6aa8ff" opacity=".8"><animate attributeName="opacity" dur="3.8s" repeatCount="indefinite" values="0.5;0.9;0.5"/></circle><circle cx="450" cy="600" r="1.7" fill="#5ed4ff" opacity=".7"><animate attributeName="opacity" dur="4.2s" repeatCount="indefinite" values="0.4;0.8;0.4"/></circle></g><g opacity="0"><line x1="100" x2="200" y1="100" y2="200" stroke="#e5f0ff" stroke-linecap="round" stroke-width="1.5"><animate attributeName="opacity" dur="10s" repeatCount="indefinite" values="0;0;0.8;0"/></line><animateTransform attributeName="transform" dur="10s" from="0 0" repeatCount="indefinite" to="800 600" type="translate"/></g></svg>